<svg width="12" height="11" viewBox="0 0 12 11" fill="none" xmlns="http://www.w3.org/2000/svg">
<path d="M7.131 0.696289C7.189 0.754598 7.437 0.974769 7.641 1.17987C8.924 2.3823 11.024 5.5191 11.665 7.16084C11.768 7.41018 11.986 8.04053 12 8.37739C12 8.7001 11.928 9.00774 11.782 9.30135C11.578 9.66731 11.257 9.96081 10.878 10.1217C10.615 10.2252 9.828 10.3861 9.814 10.3861C8.953 10.547 7.554 10.6354 6.008 10.6354C4.535 10.6354 3.193 10.547 2.319 10.4153C2.305 10.4001 1.327 10.2394 0.992 10.0634C0.38 9.74068 0 9.11032 0 8.43569V8.37739C0.015 7.93805 0.395 7.01409 0.409 7.01409C1.051 5.46079 3.048 2.39638 4.375 1.1648C4.375 1.1648 4.716 0.817933 4.929 0.667124C5.235 0.431875 5.614 0.315247 5.993 0.315247C6.416 0.315247 6.81 0.446953 7.131 0.696289Z" fill="white"/>
</svg>
